<mxfile host="app.diagrams.net" modified="2022-12-03T04:01:07.652Z" agent="5.0 (Windows)" etag="iFgpiVaBaW2zZjVihjJW" version="20.5.1" type="github">
  <diagram id="faTMAzA_8DKJSXqQvikQ" name="第 1 页">
    <mxGraphModel dx="1410" dy="352" grid="0" gridSize="10" guides="1" tooltips="1" connect="1" arrows="1" fold="1" page="1" pageScale="1" pageWidth="827" pageHeight="1169" math="0" shadow="0">
      <root>
        <mxCell id="0" />
        <mxCell id="1" parent="0" />
        <mxCell id="pb0SKSZt-ZjNRUZiuOOD-6" value="" style="rounded=0;whiteSpace=wrap;html=1;dashed=1;strokeColor=default;" vertex="1" parent="1">
          <mxGeometry x="97" y="153" width="322" height="275" as="geometry" />
        </mxCell>
        <mxCell id="pb0SKSZt-ZjNRUZiuOOD-7" value="爬虫规则引擎" style="rounded=1;whiteSpace=wrap;html=1;strokeColor=default;" vertex="1" parent="1">
          <mxGeometry x="114" y="189" width="120" height="60" as="geometry" />
        </mxCell>
        <mxCell id="pb0SKSZt-ZjNRUZiuOOD-8" value="URL管理器" style="rounded=1;whiteSpace=wrap;html=1;strokeColor=default;" vertex="1" parent="1">
          <mxGeometry x="289" y="189" width="120" height="60" as="geometry" />
        </mxCell>
        <mxCell id="pb0SKSZt-ZjNRUZiuOOD-9" value="网页解析器" style="rounded=1;whiteSpace=wrap;html=1;strokeColor=default;" vertex="1" parent="1">
          <mxGeometry x="114" y="330" width="120" height="60" as="geometry" />
        </mxCell>
        <mxCell id="pb0SKSZt-ZjNRUZiuOOD-10" value="网页下载器" style="rounded=1;whiteSpace=wrap;html=1;strokeColor=default;" vertex="1" parent="1">
          <mxGeometry x="289" y="328" width="120" height="60" as="geometry" />
        </mxCell>
        <mxCell id="pb0SKSZt-ZjNRUZiuOOD-11" value="" style="rounded=0;whiteSpace=wrap;html=1;dashed=1;strokeColor=default;" vertex="1" parent="1">
          <mxGeometry x="94" y="513" width="515" height="96" as="geometry" />
        </mxCell>
        <mxCell id="pb0SKSZt-ZjNRUZiuOOD-12" value="CSV文件" style="rounded=1;whiteSpace=wrap;html=1;strokeColor=default;" vertex="1" parent="1">
          <mxGeometry x="121" y="539" width="110" height="37" as="geometry" />
        </mxCell>
        <mxCell id="pb0SKSZt-ZjNRUZiuOOD-13" value="json文件" style="rounded=1;whiteSpace=wrap;html=1;strokeColor=default;" vertex="1" parent="1">
          <mxGeometry x="285" y="539" width="110" height="37" as="geometry" />
        </mxCell>
        <mxCell id="pb0SKSZt-ZjNRUZiuOOD-15" value="mysql" style="rounded=1;whiteSpace=wrap;html=1;strokeColor=default;" vertex="1" parent="1">
          <mxGeometry x="461" y="539" width="110" height="37" as="geometry" />
        </mxCell>
        <mxCell id="pb0SKSZt-ZjNRUZiuOOD-16" value="IP代理池" style="rounded=0;whiteSpace=wrap;html=1;dashed=1;strokeColor=default;" vertex="1" parent="1">
          <mxGeometry x="489" y="155" width="130" height="278" as="geometry" />
        </mxCell>
      </root>
    </mxGraphModel>
  </diagram>
</mxfile>
